<?xml version="1.0" encoding="utf-8"?>
<svg version="1.1" id="Layer_1" xmlns="http://www.w3.org/2000/svg" xmlns:xlink="http://www.w3.org/1999/xlink" x="0px" y="0px"
	 viewBox="0 0 400 400" enable-background="new 0 0 400 400" xml:space="preserve">
<g>
	<g>
		<defs>
			<rect id="SVGID_1_" x="58" y="57.9" width="285" height="283.8"/>
		</defs>
		<clipPath id="SVGID_2_">
			<use xlink:href="#SVGID_1_"  overflow="visible"/>
		</clipPath>
		<g clip-path="url(#SVGID_2_)">
			<text transform="matrix(1 0 0 1 58.0258 68.7012)" fill="none" font-family="'TimesNewRomanPSMT'" font-size="12"> </text>
		</g>
	</g>
	<polygon fill-rule="evenodd" clip-rule="evenodd" fill="#f9f9f9" points="329.2,172.2 331.4,173.1 335.5,175.1 339.6,177 341.5,177.5 
		340.3,171.3 338.8,165 337.2,159 335,153 332.8,147.3 330.4,141.5 327.6,135.8 324.7,130.4 321.6,125.2 318.2,119.9 314.6,114.8 
		310.8,110 306.7,105.5 302.4,100.9 298.1,96.6 293.5,92.5 288.7,88.7 283.7,84.9 278.6,81.5 273.3,78.1 268.1,75 262.5,72.4 
		256.8,69.8 251,67.3 245,65.2 239,63.5 233,61.8 226.8,60.6 220.3,59.7 213.8,58.8 207.4,58.5 200.9,58.3 193.7,58.5 186.5,58.9 
		179.5,59.9 172.6,61.1 165.9,62.5 159.1,64.5 152.7,66.6 146.2,69 139.9,71.9 133.9,75 128,78.4 122.2,82 116.7,85.8 111.4,89.9 
		106.4,94.3 101.3,98.8 96.5,103.6 92.2,108.8 87.9,113.9 83.8,119.4 80.2,125.2 76.6,130.9 73.5,136.9 70.6,143.2 68,149.4 
		65.6,155.9 63.7,162.3 62,169.3 60.5,176 59.3,183 58.6,190.2 58.4,197.4 58.6,199.1 59.1,201.3 59.8,203.1 60.5,204.6 62,206.3 
		63.7,207.7 65.6,209.1 67.5,210.3 69.4,211.1 71.3,211.8 73,212.3 74.2,212.3 75.9,206.8 78.5,197.4 81.4,188 82.8,182.5 
		82.4,182.8 81.4,183 80.2,183 78.8,183 77.1,182.5 75.6,181.8 74.2,180.8 73,179.6 72.5,178.4 72,177.5 71.8,176.5 72,175.3 
		73.2,169.8 74.7,164.3 76.4,158.8 78.3,153.5 80.2,148.4 82.6,143.2 85.2,138.4 87.9,133.6 91,128.8 94.1,124.3 97.5,119.6 
		100.8,115.6 104.7,111.3 108.5,107.4 112.6,103.6 116.7,100 121.2,96.4 125.6,93.3 130.3,90.1 135.1,87.3 139.9,84.4 145,82 
		150.3,79.8 155.5,77.7 160.8,75.8 166.3,74.3 171.9,72.9 177.4,71.7 183.1,70.8 189.1,70.3 194.9,69.8 200.9,69.5 206.6,69.8 
		212.4,70 217.9,70.8 223.7,71.7 229.2,72.6 234.5,74.1 240,75.5 245,77.4 250.3,79.3 255.3,81.5 260.4,83.9 265.2,86.5 269.7,89.2 
		274.3,92.3 278.9,95.4 283.2,98.8 287.3,102.1 291.3,106 295.2,109.8 299,113.6 302.4,118 306,122.3 309.1,126.6 312.2,131.2 
		314.8,136 317.7,140.8 320.1,145.8 322.3,150.8 324.4,155.9 326.1,161.1 327.8,166.7 329.2,172.2 329.2,172.2 	"/>
	<polygon fill="#f9f9f9" stroke="#9FC9EB" stroke-linecap="round" stroke-linejoin="round" stroke-miterlimit="8" points="329.2,172.2 
		331.4,173.1 335.5,175.1 339.6,177 341.5,177.5 340.3,171.3 338.8,165 337.2,159 335,153 332.8,147.3 330.4,141.5 327.6,135.8 
		324.7,130.4 321.6,125.2 318.2,119.9 314.6,114.8 310.8,110 306.7,105.5 302.4,100.9 298.1,96.6 293.5,92.5 288.7,88.7 283.7,84.9 
		278.6,81.5 273.3,78.1 268.1,75 262.5,72.4 256.8,69.8 251,67.3 245,65.2 239,63.5 233,61.8 226.8,60.6 220.3,59.7 213.8,58.8 
		207.4,58.5 200.9,58.3 193.7,58.5 186.5,58.9 179.5,59.9 172.6,61.1 165.9,62.5 159.1,64.5 152.7,66.6 146.2,69 139.9,71.9 
		133.9,75 128,78.4 122.2,82 116.7,85.8 111.4,89.9 106.4,94.3 101.3,98.8 96.5,103.6 92.2,108.8 87.9,113.9 83.8,119.4 80.2,125.2 
		76.6,130.9 73.5,136.9 70.6,143.2 68,149.4 65.6,155.9 63.7,162.3 62,169.3 60.5,176 59.3,183 58.6,190.2 58.4,197.4 58.6,199.1 
		59.1,201.3 59.8,203.1 60.5,204.6 62,206.3 63.7,207.7 65.6,209.1 67.5,210.3 69.4,211.1 71.3,211.8 73,212.3 74.2,212.3 
		75.9,206.8 78.5,197.4 81.4,188 82.8,182.5 82.4,182.8 81.4,183 80.2,183 78.8,183 77.1,182.5 75.6,181.8 74.2,180.8 73,179.6 
		72.5,178.4 72,177.5 71.8,176.5 72,175.3 73.2,169.8 74.7,164.3 76.4,158.8 78.3,153.5 80.2,148.4 82.6,143.2 85.2,138.4 
		87.9,133.6 91,128.8 94.1,124.3 97.5,119.6 100.8,115.6 104.7,111.3 108.5,107.4 112.6,103.6 116.7,100 121.2,96.4 125.6,93.3 
		130.3,90.1 135.1,87.3 139.9,84.4 145,82 150.3,79.8 155.5,77.7 160.8,75.8 166.3,74.3 171.9,72.9 177.4,71.7 183.1,70.8 
		189.1,70.3 194.9,69.8 200.9,69.5 206.6,69.8 212.4,70 217.9,70.8 223.7,71.7 229.2,72.6 234.5,74.1 240,75.5 245,77.4 250.3,79.3 
		255.3,81.5 260.4,83.9 265.2,86.5 269.7,89.2 274.3,92.3 278.9,95.4 283.2,98.8 287.3,102.1 291.3,106 295.2,109.8 299,113.6 
		302.4,118 306,122.3 309.1,126.6 312.2,131.2 314.8,136 317.7,140.8 320.1,145.8 322.3,150.8 324.4,155.9 326.1,161.1 327.8,166.7 
		329.2,172.2 329.2,172.2 	"/>
	<polygon fill-rule="evenodd" clip-rule="evenodd" fill="#f9f9f9" points="227.5,86 217.1,159.4 239.9,172.1 214.8,171.6 194.4,218.9 
		199.4,171.6 175.2,171.6 203.5,159.1 227.5,86 227.5,86 	"/>
	<polygon fill="#f9f9f9" stroke="#9FC9EB" stroke-linecap="round" stroke-linejoin="round" stroke-miterlimit="8" points="227.5,86 
		217.1,159.4 239.9,172.1 214.8,171.6 194.4,218.9 199.4,171.6 175.2,171.6 203.5,159.1 227.5,86 227.5,86 	"/>
	<polygon fill-rule="evenodd" clip-rule="evenodd" fill="#f9f9f9" points="144.1,184.3 131.6,230.1 165.9,229.8 173.6,209.9 
		171.4,306.8 223.5,210.4 220.1,228.9 254.9,228.9 268.1,182.8 219.4,183.3 188,245.4 190.1,184 144.1,184.3 144.1,184.3 	"/>
	<polygon fill="#f9f9f9" stroke="#9FC9EB" stroke-linecap="round" stroke-linejoin="round" stroke-miterlimit="8" points="144.1,184.3 
		131.6,230.1 165.9,229.8 173.6,209.9 171.4,306.8 223.5,210.4 220.1,228.9 254.9,228.9 268.1,182.8 219.4,183.3 188,245.4 
		190.1,184 144.1,184.3 144.1,184.3 	"/>
	<polygon fill-rule="evenodd" clip-rule="evenodd" fill="#f9f9f9" points="275.5,183.3 320.2,183 310.6,215.4 291.4,215.4 301.9,229.1 
		281.5,229.8 267.2,214.3 275.5,183.3 275.5,183.3 	"/>
	<polygon fill="#f9f9f9" stroke="#9FC9EB" stroke-linecap="round" stroke-linejoin="round" stroke-miterlimit="8" points="275.5,183.3 
		320.2,183 310.6,215.4 291.4,215.4 301.9,229.1 281.5,229.8 267.2,214.3 275.5,183.3 275.5,183.3 	"/>
	<polygon fill-rule="evenodd" clip-rule="evenodd" fill="#f9f9f9" points="81.9,214 96.3,214 92,229.6 108.6,229.6 112.6,214.5 
		127.3,214.7 136.2,183.8 89.9,183.8 81.9,214 81.9,214 	"/>
	<polygon fill="#f9f9f9" stroke="#9FC9EB" stroke-linecap="round" stroke-linejoin="round" stroke-miterlimit="8" points="81.9,214 
		96.3,214 92,229.6 108.6,229.6 112.6,214.5 127.3,214.7 136.2,183.8 89.9,183.8 81.9,214 81.9,214 	"/>
	<polyline fill-rule="evenodd" clip-rule="evenodd" fill="#f9f9f9" points="70.7,224.5 68.5,223.3 64.4,221.4 60.3,219.5 58.4,219 
		59.6,225.5 61.1,231.8 62.7,238 64.9,244.3 67.1,250.3 69.5,256 72.3,261.8 75.2,267.3 78.3,272.8 81.9,278 85.5,283.1 89.4,288.1 
		93.5,292.9 97.5,297.5 102.1,302 106.6,306.1 111.4,310.2 116.5,314 121.5,317.6 126.8,321 132.1,324.1 137.8,327 143.4,329.6 
		149.4,332 155.1,334.2 161.3,336.1 167.3,337.5 173.6,339 180.1,339.9 186.5,340.7 193,341.1 199.7,341.4 206.9,341.1 214.1,340.7 
		221.1,339.7 228,338.5 234.8,336.8 241.5,334.9 248,332.8 254.4,330.1 260.7,327.5 266.9,324.1 272.7,320.8 278.4,317.1 
		284.2,313.1 289.5,309 294.5,304.4 299.5,299.6 304.3,294.8 308.9,289.6 313,284.3 317.1,278.5 320.9,272.8 324.3,266.8 
		327.6,260.5 330.5,254.3 333.1,247.8 335.5,241.1 337.4,234.4 339.1,227.4 340.6,220.5 341.8,213.3 342.5,206.1 342.7,198.6 
		342.5,196.8 342,194.8 341.3,192.9 340.6,191.2 339.4,189.5 337.7,188.1 335.8,186.6 333.8,185.4 331.9,184.5 330,183.8 
		328.1,183.3 326.9,183.3 325.2,189 322.3,198.9 319.5,208.8 318,214.3 319.5,214 322.1,214 323.8,214.3 325.2,214.5 326.4,215.2 
		327.4,215.9 328.1,217.1 328.8,218.5 329.1,220 328.8,221.9 327.6,227.7 326.2,233.2 324.5,238.7 322.6,244.3 320.4,249.5 
		318,254.5 315.6,259.6 312.7,264.6 309.9,269.4 306.5,274 303.1,278.5 299.8,282.8 295.9,287.2 292.1,291.3 288,295.1 283.7,298.9 
		279.4,302.3 274.8,305.6 270.3,308.8 265.5,311.9 260.7,314.5 255.4,317.1 250.4,319.3 245.1,321.5 239.8,323.4 234.3,325.1 
		228.8,326.5 223,327.8 217.2,328.4 211.5,329.1 205.5,329.6 199.7,329.6 193.7,329.6 188,329.1 182.5,328.7 176.7,327.8 
		171.2,326.5 165.7,325.3 160.4,323.6 155.1,321.8 150.1,319.8 144.8,317.6 140,315 135.2,312.3 130.4,309.5 125.8,306.6 
		121.3,303.3 117,299.9 112.9,296.3 108.8,292.4 104.7,288.6 101.1,284.5 97.5,280.2 94.2,275.6 90.8,271.1 87.9,266.5 85.1,261.8 
		82.4,256.7 79.8,251.6 77.6,246.4 75.5,241.1 73.8,235.6 72.1,230.1 70.7,224.5 	"/>
	<polyline fill="#f9f9f9" stroke="#9FC9EB" stroke-linecap="round" stroke-linejoin="round" stroke-miterlimit="8" points="70.7,224.5 
		68.5,223.3 64.4,221.4 60.3,219.5 58.4,219 59.6,225.5 61.1,231.8 62.7,238 64.9,244.3 67.1,250.3 69.5,256 72.3,261.8 75.2,267.3 
		78.3,272.8 81.9,278 85.5,283.1 89.4,288.1 93.5,292.9 97.5,297.5 102.1,302 106.6,306.1 111.4,310.2 116.5,314 121.5,317.6 
		126.8,321 132.1,324.1 137.8,327 143.4,329.6 149.4,332 155.1,334.2 161.3,336.1 167.3,337.5 173.6,339 180.1,339.9 186.5,340.7 
		193,341.1 199.7,341.4 206.9,341.1 214.1,340.7 221.1,339.7 228,338.5 234.8,336.8 241.5,334.9 248,332.8 254.4,330.1 260.7,327.5 
		266.9,324.1 272.7,320.8 278.4,317.1 284.2,313.1 289.5,309 294.5,304.4 299.5,299.6 304.3,294.8 308.9,289.6 313,284.3 
		317.1,278.5 320.9,272.8 324.3,266.8 327.6,260.5 330.5,254.3 333.1,247.8 335.5,241.1 337.4,234.4 339.1,227.4 340.6,220.5 
		341.8,213.3 342.5,206.1 342.7,198.6 342.5,196.8 342,194.8 341.3,192.9 340.6,191.2 339.4,189.5 337.7,188.1 335.8,186.6 
		333.8,185.4 331.9,184.5 330,183.8 328.1,183.3 326.9,183.3 325.2,189 322.3,198.9 319.5,208.8 318,214.3 319.5,214 322.1,214 
		323.8,214.3 325.2,214.5 326.4,215.2 327.4,215.9 328.1,217.1 328.8,218.5 329.1,220 328.8,221.9 327.6,227.7 326.2,233.2 
		324.5,238.7 322.6,244.3 320.4,249.5 318,254.5 315.6,259.6 312.7,264.6 309.9,269.4 306.5,274 303.1,278.5 299.8,282.8 
		295.9,287.2 292.1,291.3 288,295.1 283.7,298.9 279.4,302.3 274.8,305.6 270.3,308.8 265.5,311.9 260.7,314.5 255.4,317.1 
		250.4,319.3 245.1,321.5 239.8,323.4 234.3,325.1 228.8,326.5 223,327.8 217.2,328.4 211.5,329.1 205.5,329.6 199.7,329.6 
		193.7,329.6 188,329.1 182.5,328.7 176.7,327.8 171.2,326.5 165.7,325.3 160.4,323.6 155.1,321.8 150.1,319.8 144.8,317.6 140,315 
		135.2,312.3 130.4,309.5 125.8,306.6 121.3,303.3 117,299.9 112.9,296.3 108.8,292.4 104.7,288.6 101.1,284.5 97.5,280.2 
		94.2,275.6 90.8,271.1 87.9,266.5 85.1,261.8 82.4,256.7 79.8,251.6 77.6,246.4 75.5,241.1 73.8,235.6 72.1,230.1 70.7,224.5 	"/>
</g>
</svg>
